<svg style="position: absolute; width: 0; height: 0; overflow: hidden;" version="1.1" xmlns="http://www.w3.org/2000/svg" xmlns:xlink="http://www.w3.org/1999/xlink">
  <defs>
    <symbol id="search" viewBox="0 0 26 28">
      <title>search</title>
      <path
        d="M18 13c0-3.859-3.141-7-7-7s-7 3.141-7 7 3.141 7 7 7 7-3.141 7-7zM26 26c0 1.094-0.906 2-2 2-0.531 0-1.047-0.219-1.406-0.594l-5.359-5.344c-1.828 1.266-4.016 1.937-6.234 1.937-6.078 0-11-4.922-11-11s4.922-11 11-11 11 4.922 11 11c0 2.219-0.672 4.406-1.937 6.234l5.359 5.359c0.359 0.359 0.578 0.875 0.578 1.406z"></path>
    </symbol>
    <symbol id="envelope-o" viewBox="0 0 28 28">
      <title>envelope-o</title>
      <path
        d="M26 23.5v-12c-0.328 0.375-0.688 0.719-1.078 1.031-2.234 1.719-4.484 3.469-6.656 5.281-1.172 0.984-2.625 2.188-4.25 2.188h-0.031c-1.625 0-3.078-1.203-4.25-2.188-2.172-1.813-4.422-3.563-6.656-5.281-0.391-0.313-0.75-0.656-1.078-1.031v12c0 0.266 0.234 0.5 0.5 0.5h23c0.266 0 0.5-0.234 0.5-0.5zM26 7.078c0-0.391 0.094-1.078-0.5-1.078h-23c-0.266 0-0.5 0.234-0.5 0.5 0 1.781 0.891 3.328 2.297 4.438 2.094 1.641 4.188 3.297 6.266 4.953 0.828 0.672 2.328 2.109 3.422 2.109h0.031c1.094 0 2.594-1.437 3.422-2.109 2.078-1.656 4.172-3.313 6.266-4.953 1.016-0.797 2.297-2.531 2.297-3.859zM28 6.5v17c0 1.375-1.125 2.5-2.5 2.5h-23c-1.375 0-2.5-1.125-2.5-2.5v-17c0-1.375 1.125-2.5 2.5-2.5h23c1.375 0 2.5 1.125 2.5 2.5z"></path>
    </symbol>
    <symbol id="chevron-up" viewBox="0 0 28 28">
      <title>chevron-up</title>
      <path
        d="M26.297 20.797l-2.594 2.578c-0.391 0.391-1.016 0.391-1.406 0l-8.297-8.297-8.297 8.297c-0.391 0.391-1.016 0.391-1.406 0l-2.594-2.578c-0.391-0.391-0.391-1.031 0-1.422l11.594-11.578c0.391-0.391 1.016-0.391 1.406 0l11.594 11.578c0.391 0.391 0.391 1.031 0 1.422z"></path>
    </symbol>
    <symbol id="chevron-down" viewBox="0 0 28 28">
      <title>chevron-down</title>
      <path
        d="M26.297 12.625l-11.594 11.578c-0.391 0.391-1.016 0.391-1.406 0l-11.594-11.578c-0.391-0.391-0.391-1.031 0-1.422l2.594-2.578c0.391-0.391 1.016-0.391 1.406 0l8.297 8.297 8.297-8.297c0.391-0.391 1.016-0.391 1.406 0l2.594 2.578c0.391 0.391 0.391 1.031 0 1.422z"></path>
    </symbol>
    <symbol id="phone" viewBox="0 0 22 28">
      <title>phone</title>
      <path
        d="M22 19.375c0 0.562-0.25 1.656-0.484 2.172-0.328 0.766-1.203 1.266-1.906 1.656-0.922 0.5-1.859 0.797-2.906 0.797-1.453 0-2.766-0.594-4.094-1.078-0.953-0.344-1.875-0.766-2.734-1.297-2.656-1.641-5.859-4.844-7.5-7.5-0.531-0.859-0.953-1.781-1.297-2.734-0.484-1.328-1.078-2.641-1.078-4.094 0-1.047 0.297-1.984 0.797-2.906 0.391-0.703 0.891-1.578 1.656-1.906 0.516-0.234 1.609-0.484 2.172-0.484 0.109 0 0.219 0 0.328 0.047 0.328 0.109 0.672 0.875 0.828 1.188 0.5 0.891 0.984 1.797 1.5 2.672 0.25 0.406 0.719 0.906 0.719 1.391 0 0.953-2.828 2.344-2.828 3.187 0 0.422 0.391 0.969 0.609 1.344 1.578 2.844 3.547 4.813 6.391 6.391 0.375 0.219 0.922 0.609 1.344 0.609 0.844 0 2.234-2.828 3.187-2.828 0.484 0 0.984 0.469 1.391 0.719 0.875 0.516 1.781 1 2.672 1.5 0.313 0.156 1.078 0.5 1.188 0.828 0.047 0.109 0.047 0.219 0.047 0.328z"></path>
    </symbol>
    <symbol id="twitter" viewBox="0 0 26 28">
      <title>twitter</title>
      <path
        d="M25.312 6.375c-0.688 1-1.547 1.891-2.531 2.609 0.016 0.219 0.016 0.438 0.016 0.656 0 6.672-5.078 14.359-14.359 14.359-2.859 0-5.516-0.828-7.75-2.266 0.406 0.047 0.797 0.063 1.219 0.063 2.359 0 4.531-0.797 6.266-2.156-2.219-0.047-4.078-1.5-4.719-3.5 0.313 0.047 0.625 0.078 0.953 0.078 0.453 0 0.906-0.063 1.328-0.172-2.312-0.469-4.047-2.5-4.047-4.953v-0.063c0.672 0.375 1.453 0.609 2.281 0.641-1.359-0.906-2.25-2.453-2.25-4.203 0-0.938 0.25-1.797 0.688-2.547 2.484 3.062 6.219 5.063 10.406 5.281-0.078-0.375-0.125-0.766-0.125-1.156 0-2.781 2.25-5.047 5.047-5.047 1.453 0 2.766 0.609 3.687 1.594 1.141-0.219 2.234-0.641 3.203-1.219-0.375 1.172-1.172 2.156-2.219 2.781 1.016-0.109 2-0.391 2.906-0.781z"></path>
    </symbol>
    <symbol id="facebook" viewBox="0 0 16 28">
      <title>facebook</title>
      <path d="M14.984 0.187v4.125h-2.453c-1.922 0-2.281 0.922-2.281 2.25v2.953h4.578l-0.609 4.625h-3.969v11.859h-4.781v-11.859h-3.984v-4.625h3.984v-3.406c0-3.953 2.422-6.109 5.953-6.109 1.687 0 3.141 0.125 3.563 0.187z"></path>
    </symbol>
    <symbol id="linkedin" viewBox="0 0 24 28">
      <title>linkedin</title>
      <path
        d="M5.453 9.766v15.484h-5.156v-15.484h5.156zM5.781 4.984c0.016 1.484-1.109 2.672-2.906 2.672v0h-0.031c-1.734 0-2.844-1.188-2.844-2.672 0-1.516 1.156-2.672 2.906-2.672 1.766 0 2.859 1.156 2.875 2.672zM24 16.375v8.875h-5.141v-8.281c0-2.078-0.75-3.5-2.609-3.5-1.422 0-2.266 0.953-2.641 1.875-0.125 0.344-0.172 0.797-0.172 1.266v8.641h-5.141c0.063-14.031 0-15.484 0-15.484h5.141v2.25h-0.031c0.672-1.062 1.891-2.609 4.672-2.609 3.391 0 5.922 2.219 5.922 6.969z"></path>
    </symbol>
    <symbol id="mobile" viewBox="0 0 12 28">
      <title>mobile</title>
      <path
        d="M7.25 22c0-0.688-0.562-1.25-1.25-1.25s-1.25 0.562-1.25 1.25 0.562 1.25 1.25 1.25 1.25-0.562 1.25-1.25zM10.5 19.5v-11c0-0.266-0.234-0.5-0.5-0.5h-8c-0.266 0-0.5 0.234-0.5 0.5v11c0 0.266 0.234 0.5 0.5 0.5h8c0.266 0 0.5-0.234 0.5-0.5zM7.5 6.25c0-0.141-0.109-0.25-0.25-0.25h-2.5c-0.141 0-0.25 0.109-0.25 0.25s0.109 0.25 0.25 0.25h2.5c0.141 0 0.25-0.109 0.25-0.25zM12 6v16c0 1.094-0.906 2-2 2h-8c-1.094 0-2-0.906-2-2v-16c0-1.094 0.906-2 2-2h8c1.094 0 2 0.906 2 2z"></path>
    </symbol>
    <symbol id="quote-left" viewBox="0 0 26 28">
      <title>quote-left</title>
      <path
        d="M12 15v6c0 1.656-1.344 3-3 3h-6c-1.656 0-3-1.344-3-3v-11c0-4.406 3.594-8 8-8h1c0.547 0 1 0.453 1 1v2c0 0.547-0.453 1-1 1h-1c-2.203 0-4 1.797-4 4v0.5c0 0.828 0.672 1.5 1.5 1.5h3.5c1.656 0 3 1.344 3 3zM26 15v6c0 1.656-1.344 3-3 3h-6c-1.656 0-3-1.344-3-3v-11c0-4.406 3.594-8 8-8h1c0.547 0 1 0.453 1 1v2c0 0.547-0.453 1-1 1h-1c-2.203 0-4 1.797-4 4v0.5c0 0.828 0.672 1.5 1.5 1.5h3.5c1.656 0 3 1.344 3 3z"></path>
    </symbol>
    <symbol id="quote-right" viewBox="0 0 26 28">
      <title>quote-right</title>
      <path
        d="M12 5v11c0 4.406-3.594 8-8 8h-1c-0.547 0-1-0.453-1-1v-2c0-0.547 0.453-1 1-1h1c2.203 0 4-1.797 4-4v-0.5c0-0.828-0.672-1.5-1.5-1.5h-3.5c-1.656 0-3-1.344-3-3v-6c0-1.656 1.344-3 3-3h6c1.656 0 3 1.344 3 3zM26 5v11c0 4.406-3.594 8-8 8h-1c-0.547 0-1-0.453-1-1v-2c0-0.547 0.453-1 1-1h1c2.203 0 4-1.797 4-4v-0.5c0-0.828-0.672-1.5-1.5-1.5h-3.5c-1.656 0-3-1.344-3-3v-6c0-1.656 1.344-3 3-3h6c1.656 0 3 1.344 3 3z"></path>
    </symbol>
    <symbol id="copyright" viewBox="0 0 24 28">
      <title>copyright</title>
      <path
        d="M17.969 16.781v1.703c0 2.203-3.516 3.016-5.719 3.016-4.281 0-7.5-3.266-7.5-7.578 0-4.234 3.187-7.422 7.422-7.422 1.547 0 5.594 0.547 5.594 3.031v1.703c0 0.141-0.109 0.25-0.25 0.25h-1.844c-0.141 0-0.25-0.109-0.25-0.25v-1.094c0-0.984-1.891-1.437-3.172-1.437-2.922 0-4.953 2.109-4.953 5.141 0 3.141 2.125 5.437 5.078 5.437 1.125 0 3.25-0.422 3.25-1.406v-1.094c0-0.141 0.109-0.25 0.234-0.25h1.859c0.125 0 0.25 0.109 0.25 0.25zM12 4c-5.516 0-10 4.484-10 10s4.484 10 10 10 10-4.484 10-10-4.484-10-10-10zM24 14c0 6.625-5.375 12-12 12s-12-5.375-12-12 5.375-12 12-12v0c6.625 0 12 5.375 12 12z"></path>
    </symbol>
    <symbol id="at" viewBox="0 0 24 28">
      <title>at</title>
      <path
        d="M15.188 12.109c0-2.25-1.172-3.594-3.141-3.594-2.594 0-5.375 2.578-5.375 6.75 0 2.328 1.156 3.656 3.187 3.656 3.141 0 5.328-3.594 5.328-6.813zM24 14c0 4.859-3.469 6.687-6.438 6.781-0.203 0-0.281 0.016-0.5 0.016-0.969 0-1.734-0.281-2.219-0.828-0.297-0.344-0.469-0.781-0.516-1.297-0.969 1.219-2.656 2.406-4.766 2.406-3.359 0-5.281-2.078-5.281-5.703 0-4.984 3.453-9.031 7.672-9.031 1.828 0 3.297 0.781 4.078 2.109l0.031-0.297 0.172-0.875c0.016-0.125 0.125-0.281 0.234-0.281h1.844c0.078 0 0.156 0.109 0.203 0.172 0.047 0.047 0.063 0.172 0.047 0.25l-1.875 9.594c-0.063 0.297-0.078 0.531-0.078 0.75 0 0.844 0.25 1.016 0.891 1.016 1.062-0.031 4.5-0.469 4.5-4.781 0-6.078-3.922-10-10-10-5.516 0-10 4.484-10 10s4.484 10 10 10c2.297 0 4.547-0.797 6.328-2.25 0.219-0.187 0.531-0.156 0.703 0.063l0.641 0.766c0.078 0.109 0.125 0.234 0.109 0.375-0.016 0.125-0.078 0.25-0.187 0.344-2.125 1.734-4.828 2.703-7.594 2.703-6.609 0-12-5.391-12-12s5.391-12 12-12c7.172 0 12 4.828 12 12z"></path>
    </symbol>
    <symbol id="trademark" viewBox="0 0 31 28">
      <title>trademark</title>
      <path
        d="M13.391 8.5v1.828c0 0.266-0.234 0.484-0.5 0.484h-4.656v12.688c0 0.281-0.219 0.5-0.484 0.5h-2.109c-0.281 0-0.5-0.219-0.5-0.5v-12.688h-4.641c-0.281 0-0.5-0.219-0.5-0.484v-1.828c0-0.281 0.219-0.5 0.5-0.5h12.391c0.266 0 0.5 0.219 0.5 0.5zM29.609 8.453l1.203 15.016c0.016 0.141-0.031 0.266-0.125 0.375-0.094 0.094-0.219 0.156-0.359 0.156h-2.094c-0.25 0-0.469-0.203-0.484-0.453l-0.719-9.188-2.953 6.641c-0.078 0.187-0.25 0.297-0.453 0.297h-1.875c-0.187 0-0.359-0.109-0.453-0.297l-2.938-6.672-0.703 9.219c-0.016 0.25-0.234 0.453-0.484 0.453h-2.109c-0.141 0-0.266-0.063-0.359-0.156-0.094-0.109-0.141-0.234-0.141-0.375l1.219-15.016c0.016-0.25 0.234-0.453 0.484-0.453h2.219c0.203 0 0.375 0.125 0.453 0.297l3.437 8.125c0.109 0.25 0.219 0.531 0.313 0.797 0.109-0.266 0.203-0.547 0.313-0.797l3.453-8.125c0.078-0.172 0.25-0.297 0.453-0.297h2.203c0.266 0 0.484 0.203 0.5 0.453z"></path>
    </symbol>
    <symbol id="registered" viewBox="0 0 28 28">
      <title>registered</title>
      <path
        d="M16.281 10.984c0-0.906-0.313-1.547-0.938-1.891-0.313-0.172-0.75-0.281-1.828-0.281h-1.922v4.391h2.531c1.375 0 2.156-0.812 2.156-2.219zM17.094 15.437l3.203 5.828c0.078 0.156 0.078 0.344-0.016 0.484-0.078 0.156-0.25 0.25-0.422 0.25h-2.375c-0.187 0-0.359-0.094-0.438-0.266l-3.031-5.703h-2.422v5.469c0 0.281-0.219 0.5-0.5 0.5h-2.094c-0.281 0-0.5-0.219-0.5-0.5v-15c0-0.281 0.219-0.5 0.5-0.5h4.594c1.641 0 2.359 0.141 2.969 0.375 1.766 0.656 2.859 2.391 2.859 4.516 0 1.922-0.953 3.547-2.469 4.297 0.047 0.078 0.094 0.156 0.141 0.25zM14 2.5c-6.344 0-11.5 5.156-11.5 11.5s5.156 11.5 11.5 11.5 11.5-5.156 11.5-11.5-5.156-11.5-11.5-11.5zM28 14c0 7.734-6.266 14-14 14s-14-6.266-14-14 6.266-14 14-14v0c7.734 0 14 6.266 14 14z"></path>
    </symbol>
    <symbol id="tag" viewBox="0 0 24 28">
      <title>tag</title>
      <path
        d="M7 7c0-1.109-0.891-2-2-2s-2 0.891-2 2 0.891 2 2 2 2-0.891 2-2zM23.672 16c0 0.531-0.219 1.047-0.578 1.406l-7.672 7.688c-0.375 0.359-0.891 0.578-1.422 0.578s-1.047-0.219-1.406-0.578l-11.172-11.188c-0.797-0.781-1.422-2.297-1.422-3.406v-6.5c0-1.094 0.906-2 2-2h6.5c1.109 0 2.625 0.625 3.422 1.422l11.172 11.156c0.359 0.375 0.578 0.891 0.578 1.422z"></path>
    </symbol>
    <symbol id="book" viewBox="0 0 448 512">
      <title id="book-title">book</title>
      <path
        d="M128 152v-32c0-4.4 3.6-8 8-8h208c4.4 0 8 3.6 8 8v32c0 4.4-3.6 8-8 8H136c-4.4 0-8-3.6-8-8zm8 88h208c4.4 0 8-3.6 8-8v-32c0-4.4-3.6-8-8-8H136c-4.4 0-8 3.6-8 8v32c0 4.4 3.6 8 8 8zm299.1 159.7c-4.2 13-4.2 51.6 0 64.6 7.3 1.4 12.9 7.9 12.9 15.7v16c0 8.8-7.2 16-16 16H80c-44.2 0-80-35.8-80-80V80C0 35.8 35.8 0 80 0h352c8.8 0 16 7.2 16 16v368c0 7.8-5.5 14.2-12.9 15.7zm-41.1.3H80c-17.6 0-32 14.4-32 32 0 17.7 14.3 32 32 32h314c-2.7-17.3-2.7-46.7 0-64zm6-352H80c-17.7 0-32 14.3-32 32v278.7c9.8-4.3 20.6-6.7 32-6.7h320V48z"></path>
    </symbol>
  </defs>
</svg>
